<svg width="297" height="141" viewBox="0 0 297 141" fill="none" xmlns="http://www.w3.org/2000/svg">
<path d="M7.927 3.70679H32.8874C42.1106 3.70679 49.2162 6.22771 54.2109 11.283C59.2864 16.271 61.8275 23.8203 61.8275 33.9174C61.8275 44.0145 59.2864 51.5907 54.2109 56.6392C49.2162 61.6273 42.1106 64.128 32.8874 64.128H7.927V3.70679ZM32.8941 53.2847C38.0569 53.2847 41.9492 51.7318 44.6584 48.6194C47.3675 45.4464 48.7188 40.9894 48.7188 35.235V32.5931C48.7188 26.8387 47.3675 22.4086 44.6584 19.2961C41.9492 16.1231 38.0569 14.5434 32.8941 14.5434H20.7064V53.2915H32.8941V53.2847Z" fill="white"/>
<path d="M90.9424 65.1765C83.4939 65.1765 77.9143 63.2068 74.1901 59.2742C70.5532 55.3415 68.6912 49.2376 68.6912 40.9555C68.6912 32.6802 70.5532 26.5695 74.1901 22.6369C77.9143 18.7043 83.5007 16.7346 90.9424 16.7346C97.7993 16.7346 102.955 18.7312 106.344 22.7243C109.732 26.6569 111.419 32.734 111.419 40.9555V43.7722H80.9529C81.1209 47.8796 81.8806 50.9316 83.4066 52.9282C84.9326 54.8642 87.5543 55.8323 91.1037 55.8323C93.6448 55.8323 95.675 55.1264 97.1943 53.7214C98.7203 52.3097 99.5605 50.3132 99.5605 47.7318H111.406C111.406 53.5467 109.543 57.9162 105.819 60.8539C102.028 63.7379 97.1203 65.1765 90.9424 65.1765ZM98.895 35.7591C98.895 29.3594 96.2733 26.1595 90.9424 26.1595C87.8971 26.1595 85.5242 26.9527 84.0049 28.5392C82.4789 30.1257 81.4638 32.5323 81.1277 35.7591H98.895Z" fill="white"/>
<path d="M139.263 65.1766C132.749 65.1766 127.667 63.859 124.03 61.2171C120.393 58.5146 118.531 54.9316 118.531 50.4746L118.619 49.4192H130.383V50.0377C130.383 52.0947 131.311 53.5871 133.092 54.5282C134.867 55.4089 137.072 55.8458 139.693 55.8458C142.06 55.8458 144.177 55.5232 145.871 54.8778C147.565 54.2325 148.412 53.177 148.412 51.7048C148.412 50.0578 147.565 48.8276 145.791 48.0075C144.097 47.1874 141.394 46.3672 137.67 45.5403C133.865 44.6597 130.732 43.7791 128.359 42.8984C125.906 41.9573 123.876 40.5187 122.094 38.5826C120.319 36.6466 119.472 34.0584 119.472 30.8317C119.472 26.3075 121.334 22.8454 125.059 20.4388C128.864 17.9717 133.778 16.7415 139.781 16.7415C145.367 16.7415 149.938 17.8843 153.575 20.1766C157.212 22.4085 159.074 25.4605 159.074 29.3326L158.987 31.356H147.223V30.8249C147.223 29.2989 146.544 28.1225 145.024 27.3024C143.673 26.4823 141.724 26.0722 139.357 26.0722C136.904 26.0722 135.041 26.3949 133.603 27.0402C132.164 27.6856 131.485 28.5931 131.485 29.7695C131.485 31.235 132.332 32.3241 133.852 33.0299C135.546 33.7358 138.167 34.4416 141.724 35.1407C145.616 36.0214 148.829 36.902 151.283 37.7827C153.737 38.6633 155.935 40.1019 157.716 42.0985C159.578 44.095 160.506 46.7974 160.506 50.199C160.499 60.1885 153.394 65.1766 139.263 65.1766Z" fill="white"/>
<path d="M169.555 0.446289H181.655V11.8946H169.555V0.446289ZM169.555 17.7969H181.655V64.1212H169.555V17.7969Z" fill="white"/>
<path d="M201.627 80.1476C198.326 80.1476 195.617 79.146 193.419 77.1562C191.134 75.1596 190.031 72.6051 190.031 69.4926C190.031 65.3852 192.397 62.2391 197.224 60.0677C194.179 58.5417 192.653 56.2225 192.653 53.11C192.653 51.174 193.412 49.5001 194.938 48.0884C196.545 46.6229 198.495 45.5943 200.861 45.0095C196.377 42.2533 194.091 38.0787 194.091 32.5058C194.091 27.632 195.866 23.7868 199.422 20.9701C202.978 18.1534 208.054 16.7417 214.655 16.7417C218.211 16.7417 221.337 17.1854 223.966 18.0593C225.741 16.9433 227.011 15.6258 227.771 14.0998C228.53 12.5133 228.954 11.1621 228.954 10.0461H240.799C240.799 13.2729 239.864 15.8879 238.09 17.8845C236.396 19.8205 234.029 21.1449 230.809 21.844C233.774 24.6002 235.212 28.1564 235.212 32.4991C235.212 37.3728 233.518 41.2181 230.05 44.0348C226.581 46.8515 221.754 48.2631 215.328 48.2631H208.303C207.2 48.2631 206.353 48.4984 205.681 48.969C205.17 49.4396 204.834 50.0849 204.834 50.9051C204.834 51.6109 205.089 52.2294 205.593 52.7537C206.185 53.2243 206.864 53.4596 207.711 53.4596H228.779C232.167 53.4596 235.038 54.6024 237.323 56.8948C239.609 59.1871 240.792 62.1786 240.792 65.8759C240.792 68.6926 240.032 71.1867 238.506 73.3647C236.98 75.5361 234.87 77.2099 232.241 78.3864C229.532 79.5628 226.655 80.1476 223.522 80.1476H201.627ZM214.655 40.0752C217.445 40.0752 219.563 39.4299 221.089 38.1392C222.527 36.788 223.287 34.9124 223.287 32.5058C223.287 30.0991 222.527 28.2505 221.089 26.9598C219.563 25.6086 217.452 24.9363 214.655 24.9363C211.778 24.9363 209.66 25.6086 208.222 26.9598C206.783 28.2505 206.104 30.0991 206.104 32.5058C206.104 34.9124 206.783 36.7947 208.222 38.1392C209.667 39.4299 211.778 40.0752 214.655 40.0752ZM223.374 71.7782C224.9 71.7782 226.164 71.3951 227.098 70.6354C228.114 69.8691 228.625 68.8741 228.625 67.6439C228.625 66.3532 228.12 65.3516 227.186 64.6524C226.339 63.9466 225.236 63.597 223.885 63.597H206.877C205.607 63.597 204.511 63.9802 203.489 64.7398C202.642 65.5062 202.219 66.4742 202.219 67.6439C202.219 68.8741 202.642 69.8758 203.489 70.6354C204.424 71.4018 205.519 71.7782 206.877 71.7782H223.374Z" fill="white"/>
<path d="M247.999 17.7969H258.324L259.259 23.8739H259.85C263.574 19.1212 268.394 16.7415 274.236 16.7415C279.056 16.7415 282.78 18.0322 285.49 20.6136C288.199 23.195 289.637 27.336 289.637 33.0299V64.1144H277.537V35.5844C277.537 32.7072 276.858 30.6233 275.507 29.3326C274.156 28.0419 272.119 27.3965 269.497 27.3965C266.788 27.3965 264.59 28.3645 262.727 30.3006C260.953 32.1761 260.106 34.529 260.106 37.3457V64.1144H248.005V17.7969H247.999Z" fill="white"/>
<path d="M26.2054 137.214C21.5534 137.214 17.3184 136.508 13.4261 135.103C9.62119 133.638 6.56915 131.493 4.29025 128.677C2.00462 125.86 0.821533 122.452 0.821533 118.459L0.908846 116.523H13.8563L13.7689 117.934C13.7689 120.516 14.952 122.573 17.2377 124.099C19.5233 125.625 22.7366 126.384 26.7969 126.384C31.2001 126.384 34.3261 125.826 36.2756 124.71C38.2184 123.534 39.1528 121.981 39.1528 120.045C39.1528 118.344 38.5612 116.933 37.21 115.817C36.0268 114.64 34.4202 113.733 32.4707 113.087C30.6086 112.381 27.9869 111.561 24.5988 110.62C19.8595 109.269 16.0546 107.978 13.09 106.748C10.1254 105.518 7.67164 103.696 5.5608 101.289C3.44323 98.8224 2.34746 95.5956 2.34746 91.6025C2.34746 86.0834 4.63313 81.8885 9.02959 79.0113C13.5135 76.1341 19.4359 74.6956 26.7969 74.6956C33.8219 74.6956 39.4889 76.1947 43.8921 79.1861C48.376 82.1238 50.5742 86.5539 50.5742 92.4831V93.5386H37.963V92.7453C37.963 90.5134 36.8605 88.7522 34.8303 87.4614C32.8808 86.1707 30.0909 85.5254 26.6221 85.5254C22.9853 85.5254 20.1081 86.0229 18.078 87.0245C16.2158 88.0262 15.2007 89.4042 15.2007 91.1655C15.2007 92.5167 15.7923 93.6931 16.9755 94.6881C18.1586 95.6292 19.5972 96.4225 21.372 97.0678C23.1467 97.6527 25.6003 98.3854 28.8204 99.2728C33.6404 100.563 37.62 101.854 40.6653 103.145C43.798 104.375 46.4198 106.224 48.7054 108.691C50.9036 111.158 52.006 114.385 52.006 118.378C52.006 124.838 49.7205 129.591 45.0685 132.643C40.5107 135.688 34.2454 137.214 26.2054 137.214Z" fill="white"/>
<path d="M65.3837 140.475C62.1703 140.475 59.4612 140.092 57.0882 139.332V130.875H62.8426C64.8727 130.875 66.5668 130.378 67.8374 129.376C69.1886 128.374 70.2037 126.734 71.0507 124.442L55.3135 88.7725H67.8374L74.2707 102.863C75.2051 105.155 76.2202 106.184 77.484 111.938H77.9076C79.3462 106.54 79.5142 105.975 80.2739 103.394L86.3644 88.7725H98.6329L84.6704 122.062C83.3192 125.934 81.7931 129.168 80.2671 131.749C78.7411 134.391 76.7984 136.502 74.2573 138.088C71.9045 139.681 68.9398 140.475 65.3837 140.475Z" fill="white"/>
<path d="M121.408 137.214C114.975 137.214 109.9 135.89 106.175 133.255C102.539 130.552 100.757 126.969 100.757 122.512L100.844 121.457H112.521V122.075C112.609 124.132 113.536 125.625 115.23 126.566C117.093 127.447 119.291 127.89 121.832 127.89C124.286 127.89 126.316 127.568 128.01 126.922C129.704 126.277 130.551 125.221 130.551 123.749C130.551 122.109 129.704 120.872 127.929 120.052C126.235 119.232 123.526 118.412 119.809 117.585C116.004 116.704 112.952 115.823 110.498 114.943C108.125 114.002 106.014 112.563 104.233 110.627C102.458 108.691 101.611 106.11 101.611 102.876C101.611 98.3519 103.473 94.8899 107.278 92.4832C111.083 90.0161 115.997 88.7859 121.919 88.7859C127.506 88.7859 132.158 89.9287 135.794 92.221C139.431 94.4529 141.213 97.5049 141.213 101.384L141.125 103.407H129.448V102.876C129.448 101.35 128.689 100.174 127.25 99.3535C125.812 98.5334 123.949 98.1233 121.496 98.1233C119.123 98.1233 117.18 98.446 115.829 99.0913C114.39 99.7367 113.711 100.644 113.711 101.821C113.711 103.286 114.471 104.375 116.078 105.081C117.684 105.787 120.306 106.493 123.862 107.192C127.842 108.073 131.055 108.953 133.509 109.834C135.962 110.714 138.08 112.153 139.942 114.15C141.717 116.146 142.651 118.849 142.651 122.25C142.645 132.219 135.539 137.214 121.408 137.214Z" fill="white"/>
<path d="M166.086 137.214C161.689 137.214 158.637 136.038 156.695 133.692C154.832 131.346 153.905 128.381 153.905 124.798V99.6964H148.406V89.8346H154.16L156.19 76.7998H166.005V89.8346H173.958V99.6964H166.005V123.561C166.005 126.089 167.276 127.346 169.81 127.346H173.958V135.803C173.023 136.152 171.759 136.475 170.233 136.771C168.707 137.066 167.356 137.214 166.086 137.214Z" fill="white"/>
<path d="M203.147 137.214C195.698 137.214 190.112 135.245 186.394 131.312C182.757 127.379 180.976 121.275 180.976 112.993C180.976 104.718 182.751 98.6074 186.394 94.6748C190.119 90.7422 195.705 88.7725 203.147 88.7725C210.004 88.7725 215.16 90.769 218.548 94.7621C221.936 98.6948 223.623 104.772 223.623 112.993V115.81H193.157C193.325 119.918 194.091 122.969 195.611 124.966C197.217 126.902 199.759 127.87 203.308 127.87C205.849 127.87 207.879 127.164 209.398 125.759C211.005 124.348 211.765 122.351 211.765 119.77H223.61C223.61 125.584 221.748 129.954 218.023 132.892C214.232 135.776 209.325 137.214 203.147 137.214ZM211.187 107.797C211.187 101.397 208.478 98.1973 203.147 98.1973C200.101 98.1973 197.728 98.9906 196.209 100.577C194.683 102.164 193.755 104.57 193.332 107.797H211.187Z" fill="white"/>
<path d="M230.231 89.8347H240.557L241.491 95.9118H242.083C245.471 91.159 249.867 88.7793 255.285 88.7793C261.127 88.7793 265.188 91.159 267.473 95.9118H268.152C271.708 91.159 276.273 88.7793 281.859 88.7793C286.256 88.7793 289.812 90.07 292.353 92.6514C294.975 95.2328 296.333 99.3738 296.333 105.068V136.152H284.232V107.622C284.232 102.164 282.034 99.4343 277.463 99.4343C275.177 99.4343 273.234 100.402 271.708 102.338C270.182 104.214 269.423 106.567 269.423 109.384V136.152H257.322V107.622C257.322 102.164 255.037 99.4343 250.553 99.4343C248.18 99.4343 246.237 100.402 244.63 102.338C243.104 104.214 242.345 106.567 242.345 109.384V136.152H230.244V89.8347H230.231Z" fill="white"/>
</svg>
