<svg width="179" height="48" viewBox="0 0 179 48" fill="none" xmlns="http://www.w3.org/2000/svg">
<path d="M177.194 21.2593L162.747 2.52392C161.591 1.03154 159.81 0.150879 157.928 0.150879H95.6307H75.4164H21.2134C19.3244 0.150879 17.543 1.02481 16.3934 2.52392L1.94694 21.2593C0.172214 23.5584 0.273034 26.7986 2.1822 28.9834L16.4002 45.2584C17.5564 46.5827 19.2303 47.3424 20.9848 47.3424H75.4164H95.6307H158.149C159.904 47.3424 161.578 46.5827 162.734 45.2584L176.952 28.9834C178.868 26.7986 178.969 23.5651 177.194 21.2593Z" fill="#FDD9E9"/>
<path d="M30.5441 31.9214H35.7876V21.3134H31.0886V19.142H38.1404V31.9214H43.0209V34.0927H30.5441V31.9214ZM34.8263 14.685C34.8263 14.1002 35.0347 13.6027 35.4447 13.1927C35.8548 12.7826 36.3523 12.5742 36.9372 12.5742C37.522 12.5742 38.0195 12.7826 38.4295 13.1927C38.8396 13.6027 39.0479 14.1002 39.0479 14.685C39.0479 15.2699 38.8396 15.7674 38.4295 16.1774C38.0195 16.5875 37.522 16.7959 36.9372 16.7959C36.3523 16.7959 35.8548 16.5875 35.4447 16.1774C35.0279 15.7606 34.8263 15.2632 34.8263 14.685Z" fill="#900945"/>
<path d="M50.9803 34.0926H48.6274V19.1419H50.9803V21.6763H51.3433C52.2643 19.7066 53.8777 18.7251 56.1633 18.7251C57.891 18.7251 59.2691 19.2629 60.2909 20.3385C61.3127 21.4141 61.8303 23.0275 61.8303 25.1787V34.0993H59.4775V25.6627C59.4775 24.0963 59.1279 22.9199 58.4221 22.1401C57.7162 21.3536 56.7616 20.9637 55.5583 20.9637C54.1332 20.9637 53.0105 21.4477 52.1971 22.4224C51.3837 23.3972 50.9736 24.7013 50.9736 26.3282V34.0926H50.9803Z" fill="#900945"/>
<path d="M93.4727 28.7886C93.3114 29.6155 93.0358 30.3751 92.6459 31.0809C92.256 31.7868 91.7585 32.3918 91.1534 32.9027C90.5484 33.4136 89.8494 33.8103 89.0427 34.0926C88.236 34.3749 87.3418 34.5161 86.3603 34.5161C85.3184 34.5161 84.3235 34.3481 83.3891 34.0052C82.4547 33.6624 81.6345 33.1649 80.9354 32.5128C80.2295 31.8607 79.6716 31.0608 79.2615 30.1196C78.8514 29.1785 78.643 28.0895 78.643 26.866V26.503C78.643 25.2996 78.8514 24.2106 79.2615 23.2493C79.6716 22.288 80.2295 21.4746 80.9354 20.8091C81.6412 20.1436 82.4547 19.6326 83.3891 19.2696C84.3235 18.9066 85.3116 18.7251 86.3603 18.7251C87.3015 18.7251 88.1754 18.8663 88.9821 19.1486C89.7888 19.431 90.4947 19.8276 91.1064 20.3385C91.7182 20.8494 92.2223 21.4612 92.6122 22.1603C93.0021 22.8661 93.2711 23.6258 93.4123 24.4526L91.0594 24.9971C90.9989 24.4728 90.851 23.9686 90.6224 23.4779C90.3939 22.9871 90.0779 22.5569 89.688 22.1804C89.2981 21.8107 88.8208 21.5149 88.2561 21.2931C87.6914 21.0712 87.0393 20.9637 86.2999 20.9637C85.5738 20.9637 84.9016 21.0981 84.2629 21.3737C83.631 21.6426 83.0731 22.0258 82.5891 22.5166C82.1051 23.0073 81.7286 23.5989 81.4597 24.2778C81.1908 24.9635 81.0497 25.703 81.0497 26.5097V26.8727C81.0497 27.7197 81.1841 28.4726 81.4597 29.1449C81.7286 29.8171 82.1051 30.3885 82.5891 30.8457C83.0731 31.3095 83.6311 31.6658 84.2764 31.9145C84.9218 32.1632 85.6142 32.291 86.3537 32.291C87.0999 32.291 87.7452 32.1767 88.2964 31.9414C88.8476 31.7129 89.3183 31.4103 89.7149 31.0339C90.1048 30.6641 90.4207 30.2339 90.6493 29.7566C90.8778 29.2726 91.0392 28.7752 91.1131 28.2508L93.4727 28.7886Z" fill="#900945"/>
<path d="M112.033 26.7987C112.033 28.0424 111.825 29.1449 111.415 30.0995C111.005 31.0541 110.454 31.8607 109.775 32.5128C109.089 33.1649 108.296 33.6624 107.381 34.0052C106.467 34.3481 105.519 34.5161 104.531 34.5161C103.53 34.5161 102.575 34.3481 101.667 34.0052C100.767 33.6624 99.9667 33.1649 99.2877 32.5128C98.6021 31.8607 98.0575 31.0541 97.6474 30.0995C97.2374 29.1449 97.0289 28.0424 97.0289 26.7987V26.4357C97.0289 25.2123 97.2374 24.1232 97.6474 23.1687C98.0575 22.2141 98.6087 21.4073 99.3078 20.7418C100 20.0763 100.8 19.5789 101.701 19.236C102.602 18.8932 103.55 18.7251 104.531 18.7251C105.513 18.7251 106.461 18.8932 107.361 19.236C108.269 19.5789 109.062 20.083 109.755 20.7418C110.447 21.4073 110.998 22.2141 111.415 23.1687C111.825 24.1232 112.033 25.2123 112.033 26.4357V26.7987ZM104.531 32.2843C105.257 32.2843 105.923 32.1565 106.534 31.9078C107.146 31.6591 107.684 31.2893 108.148 30.8053C108.612 30.3213 108.975 29.7432 109.23 29.0709C109.492 28.3987 109.62 27.639 109.62 26.7987V26.4357C109.62 25.6291 109.492 24.8963 109.23 24.2174C108.968 23.5451 108.605 22.967 108.148 22.483C107.684 21.9989 107.146 21.6225 106.521 21.3536C105.896 21.0847 105.237 20.9435 104.531 20.9435C103.825 20.9435 103.167 21.078 102.541 21.3536C101.916 21.6225 101.378 21.9989 100.915 22.483C100.451 22.967 100.088 23.5451 99.8322 24.2174C99.57 24.8896 99.4423 25.6291 99.4423 26.4357V26.7987C99.4423 27.6458 99.57 28.3987 99.8322 29.0709C100.094 29.7432 100.457 30.3213 100.915 30.8053C101.378 31.2893 101.916 31.6524 102.528 31.9078C103.14 32.1565 103.812 32.2843 104.531 32.2843Z" fill="#900945"/>
<path d="M127.945 31.8006H127.582C127.34 32.2644 127.038 32.661 126.661 33.0039C126.292 33.3467 125.888 33.6291 125.458 33.8509C125.028 34.0727 124.571 34.2341 124.087 34.3484C123.603 34.4559 123.139 34.5164 122.702 34.5164C121.7 34.5164 120.766 34.3484 119.899 34.0056C119.031 33.6627 118.279 33.172 117.626 32.5266C116.974 31.8813 116.464 31.088 116.087 30.1334C115.717 29.1788 115.529 28.0898 115.529 26.8663V26.3823C115.529 25.179 115.717 24.0967 116.101 23.1421C116.484 22.1875 116.995 21.3808 117.64 20.7287C118.285 20.0767 119.038 19.5792 119.899 19.2363C120.766 18.8935 121.68 18.7254 122.641 18.7254C123.663 18.7254 124.624 18.954 125.519 19.4044C126.413 19.8548 127.098 20.5539 127.582 21.5018H127.945V13.0046H130.298V34.0996H127.945V31.8006ZM122.944 32.2846C123.65 32.2846 124.302 32.1569 124.9 31.8947C125.505 31.6325 126.03 31.2628 126.48 30.7787C126.93 30.2947 127.287 29.7166 127.549 29.0444C127.811 28.3721 127.939 27.6259 127.939 26.7991V26.4361C127.939 25.6294 127.811 24.8967 127.549 24.2177C127.287 23.5454 126.93 22.9673 126.48 22.4833C126.03 21.9993 125.498 21.6228 124.88 21.3539C124.268 21.085 123.616 20.9438 122.937 20.9438C122.231 20.9438 121.579 21.0716 120.961 21.3337C120.349 21.5959 119.818 21.9657 119.361 22.4497C118.91 22.9337 118.554 23.5051 118.305 24.1706C118.057 24.8362 117.929 25.5689 117.929 26.3688V26.8529C117.929 27.6999 118.057 28.4528 118.305 29.1116C118.554 29.7771 118.91 30.3418 119.361 30.8124C119.811 31.283 120.342 31.646 120.941 31.8947C121.559 32.1569 122.225 32.2846 122.944 32.2846Z" fill="#900945"/>
<path d="M136.537 27.3367C136.597 28.8223 137.061 30.0189 137.922 30.9265C138.782 31.8273 139.992 32.2844 141.538 32.2844C142.244 32.2844 142.856 32.2037 143.373 32.0424C143.898 31.881 144.342 31.6592 144.711 31.3769C145.081 31.0945 145.383 30.7719 145.619 30.3954C145.847 30.0257 146.036 29.629 146.177 29.2055L148.409 29.8105C147.985 31.1953 147.205 32.3247 146.076 33.1986C144.94 34.0726 143.407 34.5095 141.478 34.5095C140.416 34.5095 139.434 34.3213 138.54 33.9516C137.646 33.5818 136.88 33.0507 136.234 32.3718C135.589 31.6861 135.091 30.8727 134.728 29.9316C134.365 28.9904 134.184 27.9417 134.184 26.7989V26.0728C134.184 25.0309 134.372 24.0561 134.742 23.1486C135.112 22.2411 135.629 21.468 136.295 20.8159C136.96 20.1639 137.733 19.6529 138.627 19.2765C139.521 18.9067 140.49 18.7185 141.538 18.7185C142.762 18.7185 143.824 18.9471 144.718 19.3975C145.612 19.8479 146.345 20.4058 146.916 21.0714C147.488 21.7369 147.911 22.4562 148.18 23.2427C148.449 24.0293 148.59 24.7485 148.59 25.4141V27.3434H136.537V27.3367ZM141.538 20.9504C140.873 20.9504 140.254 21.0579 139.683 21.2663C139.111 21.4747 138.607 21.7772 138.177 22.1537C137.747 22.5369 137.39 22.9806 137.122 23.4982C136.853 24.0091 136.671 24.567 136.597 25.1721H146.244C146.204 24.5267 146.049 23.9486 145.78 23.4242C145.511 22.8999 145.155 22.4629 144.725 22.0999C144.294 21.7369 143.804 21.4545 143.246 21.2529C142.688 21.0512 142.123 20.9504 141.538 20.9504Z" fill="#900945"/>
</svg>
